HIERARCHY
ROOT root
{
	OFFSET	0	13.1	24.9
	CHANNELS 6  Xposition Yposition Zposition Xrotation Yrotation Zrotation
	JOINT spine_1
	{
		OFFSET	0	9.99999	0
		CHANNELS 3  Xrotation Yrotation Zrotation
		JOINT spine_2
		{
			OFFSET	0	112	-10
			CHANNELS 3  Xrotation Yrotation Zrotation
			JOINT spine_3
			{
				OFFSET	0	206.5	19.3
				CHANNELS 3  Xrotation Yrotation Zrotation
				JOINT spine_4
				{
					OFFSET	0	110.4	14.6
					CHANNELS 3  Xrotation Yrotation Zrotation
					JOINT neck_1
					{
						OFFSET	0	71.8	-50.3
						CHANNELS 3  Xrotation Yrotation Zrotation
						JOINT neck_2
						{
							OFFSET	0	86.2	-25.8
							CHANNELS 3  Xrotation Yrotation Zrotation
							JOINT head_ee
							{
								OFFSET	0	179.8	-8.7
								CHANNELS 3  Xrotation Yrotation Zrotation
								End Site
								{
									OFFSET	1	0	0
								}
							}
						}
					}
					JOINT left_clavicle
					{
						OFFSET	-43.2	22.4	-70.8
						CHANNELS 3  Xrotation Yrotation Zrotation
						JOINT left_shoulder
						{
							OFFSET	-93.9	-5.79999	48.7
							CHANNELS 3  Xrotation Yrotation Zrotation
							JOINT left_elbow
							{
								OFFSET	-291.4	-30.8	15.2
								CHANNELS 3  Xrotation Yrotation Zrotation
								JOINT left_lowarm_twist
								{
									OFFSET	-110.7	-3.89999	13.6
									CHANNELS 3  Xrotation Yrotation Zrotation
									JOINT left_hand
									{
										OFFSET	-110.7	-3.89999	13.6
										CHANNELS 3  Xrotation Yrotation Zrotation
										JOINT left_ee
										{
											OFFSET	-80.8	-5.10001	12.1
											CHANNELS 3  Xrotation Yrotation Zrotation
											End Site
											{
												OFFSET	1	0	0
											}
										}
									}
								}
							}
						}
					}
					JOINT right_clavicle
					{
						OFFSET	43.2	22.4	-70.8
						CHANNELS 3  Xrotation Yrotation Zrotation
						JOINT right_shoulder
						{
							OFFSET	93.9	-5.79999	48.7
							CHANNELS 3  Xrotation Yrotation Zrotation
							JOINT right_elbow
							{
								OFFSET	291.4	-30.8	15.2
								CHANNELS 3  Xrotation Yrotation Zrotation
								JOINT right_lowarm_twist
								{
									OFFSET	110.7	-3.89999	13.6
									CHANNELS 3  Xrotation Yrotation Zrotation
									JOINT right_hand
									{
										OFFSET	110.7	-3.89999	13.6
										CHANNELS 3  Xrotation Yrotation Zrotation
										JOINT right_ee
										{
											OFFSET	80.8	-5.10001	12.1
											CHANNELS 3  Xrotation Yrotation Zrotation
											End Site
											{
												OFFSET	1	0	0
											}
										}
									}
								}
							}
						}
					}
				}
			}
		}
	}
	JOINT left_hip
	{
		OFFSET	-82.8	-127.5	0.300001
		CHANNELS 3  Xrotation Yrotation Zrotation
		JOINT left_knee
		{
			OFFSET	-28.2	-396.7	2.2
			CHANNELS 3  Xrotation Yrotation Zrotation
			JOINT left_ankle
			{
				OFFSET	-11.7	-411.3	35.4
				CHANNELS 3  Xrotation Yrotation Zrotation
				JOINT left_toes
				{
					OFFSET	0	-60	-88.6
					CHANNELS 3  Xrotation Yrotation Zrotation
					JOINT left_foot_ee
					{
						OFFSET	-22.5	-16.5	-42.2
						CHANNELS 3  Xrotation Yrotation Zrotation
						End Site
						{
							OFFSET	1	0	0
						}
					}
				}
			}
		}
	}
	JOINT right_hip
	{
		OFFSET	82.8	-127.5	0.300001
		CHANNELS 3  Xrotation Yrotation Zrotation
		JOINT right_knee
		{
			OFFSET	28.2	-396.7	2.2
			CHANNELS 3  Xrotation Yrotation Zrotation
			JOINT right_ankle
			{
				OFFSET	11.7	-411.3	35.4
				CHANNELS 3  Xrotation Yrotation Zrotation
				JOINT right_toes
				{
					OFFSET	0	-60	-88.6
					CHANNELS 3  Xrotation Yrotation Zrotation
					JOINT right_foot_ee
					{
						OFFSET	22.5	-16.5	-42.2
						CHANNELS 3  Xrotation Yrotation Zrotation
						End Site
						{
							OFFSET	1	0	0
						}
					}
				}
			}
		}
	}
}
MOTION
Frames: 11
Frame Time: 0.02
2599.90760279 758.914 -1601.20154616 22.2207849893 63.6688974098 -15.7031542405 -3.87245 -0.0826989 -1.12193 -3.87175 -0.0111448 -1.12491 -3.87054 0.299451 -1.08439 -3.87216 0.124446 -1.11807 -10.2427 20.5319 5.96706 -10.6405 34.8415 11.2212 -0.0 0.0 -0.0 8.65784 20.0565 15.3194 -17.9567 -10.1653 59.1516 0.804477 -21.7279 0.154395 -58.3548 -5.07888 5.04702 -0.414241 13.8769 3.10176 -0.0 0.0 -0.0 9.38637 11.3646 -18.4664 -6.71291 29.0205 -56.701 1.56454 37.774 -0.535294 -13.7485 0.681924 -1.61603 -0.428002 -18.4619 -4.89241 0.0 0.0 0.0 11.5556 24.5319 -23.6911 -45.8786 -0.882466 6.80081 1.34363 -1.02911 -0.198644 -38.1411 0.0 0.0 -0.0 0.0 -0.0 7.15433 26.2505 -15.9562 -8.20985 -0.249956 -1.23409 5.44025 -15.1688 0.790578 10.6233 -0.0 -0.0 0.0 0.0 0.0 
2593.70235846 756.611 -1597.25640229 23.8248613958 64.6905948766 -17.5569087065 -3.8922 -0.0768705 -1.04155 -3.89159 -0.0104418 -1.04433 -3.89055 0.278256 -1.00664 -3.89195 0.115793 -1.03795 -9.7171 19.9315 5.58896 -10.0239 33.8277 10.5138 -0.0 0.0 -0.0 8.40387 20.8449 14.8234 -18.2825 -10.8331 59.5896 0.68781 -18.8151 0.113961 -57.9655 -5.03088 5.03335 -0.167542 16.5623 5.72003 -0.0 0.0 -0.0 9.42928 10.2466 -18.5852 -6.15641 29.1877 -56.2419 1.67587 39.6955 -0.604967 -13.3697 0.65801 -1.57387 0.0482254 -13.4987 -5.8506 0.0 0.0 0.0 12.4792 25.3151 -24.0666 -43.1192 -0.677038 6.42933 -1.65959 -0.753749 0.246992 -40.1424 0.0 0.0 -0.0 0.0 -0.0 6.76151 26.0371 -15.6925 -10.1726 -0.283335 -1.53341 10.1268 -13.4947 1.44573 7.29736 -0.0 -0.0 0.0 0.0 0.0 
2579.56274247 756.491 -1590.22519909 27.3825953245 67.1067062067 -20.7868439802 -3.95756 -0.0846374 -1.10969 -3.95687 -0.013858 -1.11282 -3.95562 0.295103 -1.07308 -3.95721 0.121938 -1.10621 -7.68001 20.2276 3.19339 -7.78713 35.5744 7.61859 -0.0 0.0 -0.0 8.59905 21.378 15.0531 -19.7895 -11.5163 59.5742 0.567267 -15.6959 0.0781905 -58.4936 -5.09603 5.05182 0.258681 16.9064 8.48032 -0.0 0.0 -0.0 9.60908 9.78025 -18.9841 -5.45289 27.5335 -55.8761 1.77369 41.2998 -0.668495 -14.2805 0.715986 -1.67499 -0.495022 -11.0444 -1.40975 0.0 0.0 0.0 11.9931 27.6311 -24.767 -22.4414 0.258655 3.41213 3.80523 -2.20988 -0.560729 -40.3402 0.0 0.0 -0.0 0.0 -0.0 6.18019 24.834 -15.8074 -10.7626 -0.291362 -1.62359 8.52764 -10.2131 1.21909 8.04261 -0.0 -0.0 0.0 0.0 0.0 
2574.84854114 755.941 -1585.69940575 31.1902466766 70.7985336622 -24.2094964771 -3.92849 -0.265231 -1.16987 -3.92775 -0.190257 -1.18437 -3.92252 0.144724 -1.19079 -3.9245 -0.0451418 -1.1987 -8.2911 19.744 3.25432 -8.47731 34.7489 7.76546 -0.0 0.0 -0.0 8.17862 22.605 14.2588 -18.521 -12.9198 60.1348 0.557606 -15.4415 0.0755974 -58.914 -5.14801 5.06609 0.547501 21.9948 12.0738 -0.0 0.0 -0.0 9.24114 9.80888 -18.1855 -7.15578 26.8827 -55.5228 2.02188 45.0401 -0.838394 -13.5732 0.670826 -1.59655 -0.562496 -10.0137 -0.542812 0.0 0.0 0.0 14.2957 26.8203 -25.6524 -19.3144 0.303166 2.93443 3.76169 -2.42177 -0.554766 -40.0074 0.0 0.0 -0.0 0.0 -0.0 6.31628 20.6378 -15.7851 -11.7868 -0.303089 -1.78029 11.4433 -10.8313 1.62055 9.22164 -0.0 -0.0 0.0 0.0 0.0 
2563.79144347 757.238 -1578.85594779 33.2124302421 71.5870987523 -26.1144752272 -3.88125 -0.256644 -1.26763 -3.88037 -0.175468 -1.28139 -3.87497 0.184715 -1.28009 -3.87726 -0.0197517 -1.29319 -8.61299 18.9851 3.77217 -8.80614 33.0252 8.17459 -0.0 0.0 -0.0 8.78052 23.0296 15.0926 -20.3907 -14.1795 59.437 0.453893 -12.6721 0.0503997 -58.8177 -5.13609 5.06285 1.00867 22.5568 15.0302 -0.0 0.0 -0.0 9.56661 8.92939 -18.9028 -8.16906 24.7779 -54.5512 2.22578 47.7868 -0.986123 -12.1862 0.585099 -1.44113 -0.199069 -6.99274 -1.61805 0.0 0.0 0.0 12.337 27.2593 -24.7922 -15.9225 0.321907 2.41443 5.43883 -3.42611 -0.800772 -37.1865 0.0 0.0 -0.0 0.0 -0.0 6.50521 21.7262 -16.2241 -13.5777 -0.316857 -2.05472 11.8641 -10.6693 1.67736 10.765 -0.0 -0.0 0.0 0.0 0.0 
2543.25682287 750.338 -1563.22128981 40.5309381551 73.7506947632 -33.9733757057 -3.76492 -0.0285599 -1.37792 -3.76386 0.0591701 -1.37694 -3.76395 0.434137 -1.30807 -3.76627 0.222124 -1.3602 -8.92646 16.8066 2.31019 -9.12691 29.9717 6.29529 -0.0 0.0 -0.0 8.86144 24.0111 15.0625 -21.3067 -16.4393 60.0182 0.307844 -8.67082 0.0233384 -58.5378 -5.10149 5.05334 2.2343 25.3792 23.3226 -0.0 0.0 -0.0 9.25095 8.26115 -18.2286 -9.34989 22.8589 -53.6526 2.52056 51.3008 -1.21053 -10.2807 0.473531 -1.22438 -0.159125 -4.47962 -0.82816 0.0 0.0 0.0 8.55959 28.4063 -22.6847 -11.5913 0.301067 1.75037 15.4331 -7.71075 -2.2271 -31.9216 0.0 0.0 -0.0 0.0 -0.0 5.1751 19.432 -14.9973 -17.7216 -0.315801 -2.69038 14.8251 -13.1011 2.07943 15.962 -0.0 -0.0 0.0 0.0 0.0 
2535.20640348 753.945 -1557.2592095 44.7950681772 74.6588982202 -38.133363713 -3.768 0.068286 -1.45538 -3.76684 0.160748 -1.44809 -3.76958 0.551486 -1.3486 -3.77196 0.331601 -1.41875 -8.84612 16.0992 2.18309 -9.02009 28.7116 5.9688 -0.0 0.0 -0.0 9.06568 24.4569 15.2876 -21.5286 -17.0857 59.7612 0.255321 -7.20858 0.0160827 -58.4166 -5.08651 5.04916 2.49922 25.9369 25.1124 -0.0 0.0 -0.0 9.1235 8.04611 -17.9572 -9.96655 21.8891 -53.9457 2.5236 51.3346 -1.2129 -9.63131 0.437168 -1.14968 -0.186169 -4.12678 -0.50187 0.0 0.0 0.0 7.41672 28.7116 -22.4347 -11.689 0.30209 1.76532 19.8511 -9.88159 -2.83593 -29.421 0.0 0.0 -0.0 0.0 -0.0 4.38306 18.8441 -14.5611 -18.4998 -0.310475 -2.80966 16.3947 -12.017 2.28147 17.4159 -0.0 -0.0 0.0 0.0 0.0 
2526.17008763 752.794 -1549.7556735 49.7509033902 75.6496836048 -43.0470214873 -3.77803 0.0702328 -1.49706 -3.77679 0.165342 -1.48956 -3.77969 0.567523 -1.38712 -3.78222 0.341356 -1.45933 -9.02291 15.8983 1.88423 -9.21385 28.5646 5.67455 -0.0 0.0 -0.0 9.21179 24.6251 15.4708 -21.6145 -17.4915 59.6023 0.214834 -6.07484 0.0113997 -58.318 -5.07434 5.04574 2.84492 26.7944 27.4878 -0.0 0.0 -0.0 9.04232 7.80658 -17.7857 -10.5395 21.1421 -53.9084 2.5513 51.6391 -1.23458 -9.18532 0.412688 -1.09815 -0.153341 -3.3744 -0.401946 0.0 0.0 0.0 6.54257 28.8336 -22.0367 -11.3966 0.298951 1.72056 23.1508 -11.4623 -3.27855 -27.5153 0.0 0.0 -0.0 0.0 -0.0 4.13034 18.5738 -14.3828 -19.0624 -0.305617 -2.89584 17.6781 -13.9853 2.45538 18.4578 -0.0 -0.0 0.0 0.0 0.0 
2526.89233667 752.02 -1547.46617907 50.9231335002 75.8478224635 -44.077725764 -3.75511 0.033972 -1.52272 -3.75383 0.130787 -1.51748 -3.75578 0.541349 -1.42367 -3.75847 0.309739 -1.49128 -9.83686 14.9517 0.983482 -10.0871 27.499 4.76491 -0.0 0.0 -0.0 8.9438 24.8053 15.0555 -22.7007 -17.4876 59.7241 0.376868 -10.575 0.0348781 -58.3638 -5.08 5.04734 2.65749 26.9215 26.3175 -0.0 0.0 -0.0 8.75684 7.60112 -17.1786 -10.1765 20.5802 -54.4341 2.59547 52.1164 -1.26932 -8.44957 0.373184 -1.01274 -0.252315 -3.81629 0.065112 0.0 0.0 0.0 7.05258 28.9175 -22.1929 -11.9077 0.304289 1.79881 22.8862 -8.30178 -3.19263 -26.5388 0.0 0.0 -0.0 0.0 -0.0 2.51762 18.9322 -13.9471 -15.6976 -0.322061 -2.37991 17.5228 -11.8711 2.42661 16.1034 -0.0 -0.0 0.0 0.0 0.0 
2523.60846077 753.802 -1547.87130464 51.7569547038 75.9568484286 -44.9195854337 -3.74227 0.0108643 -1.62187 -3.74082 0.114032 -1.61789 -3.74227 0.552384 -1.52496 -3.74539 0.304644 -1.59304 -8.7898 14.417 0.42265 -8.93856 26.7439 3.81769 -0.0 0.0 -0.0 9.17398 24.5863 15.4227 -22.6185 -17.8424 59.6159 0.330479 -9.29758 0.0268731 -57.6936 -4.99739 5.0236 2.84569 26.2153 27.3816 -0.0 0.0 -0.0 8.754 7.81779 -17.1699 -11.0287 20.176 -54.6849 2.46146 50.6363 -1.16462 -8.51613 0.376712 -1.02049 -0.22763 -3.7544 -0.0715881 0.0 0.0 0.0 6.85874 29.4004 -22.1968 -12.3195 0.308081 1.86188 24.4272 -9.42388 -3.39725 -25.1973 0.0 0.0 -0.0 0.0 -0.0 2.00113 18.5336 -13.5709 -16.1394 -0.32163 -2.44769 16.9348 -12.9403 2.35479 17.0786 -0.0 -0.0 0.0 0.0 0.0 
2521.15368522 754.836 -1544.9760211 54.6656801076 76.3218993941 -47.5232426758 -3.71092 -0.253582 -1.78219 -3.70916 -0.139682 -1.79471 -3.70214 0.355421 -1.76471 -3.70648 0.0723052 -1.79868 -9.29296 14.1028 0.226913 -9.47668 26.3442 3.66999 -0.0 0.0 -0.0 8.76745 24.4931 14.8518 -20.8069 -18.8688 61.1858 0.282956 -7.97924 0.0197347 -57.6641 -4.99377 5.02254 2.90875 27.4603 28.0199 -0.0 0.0 -0.0 8.63988 6.63553 -16.9397 -10.8142 19.8625 -54.6856 2.5448 51.568 -1.22948 -8.72052 0.387603 -1.04425 -0.206842 -3.02086 0.100825 0.0 0.0 0.0 7.00643 29.8349 -22.2372 -12.5179 0.309746 1.89227 27.4164 -12.0397 -3.79995 -23.9966 0.0 0.0 -0.0 0.0 -0.0 1.4262 18.7154 -13.5197 -15.2858 -0.321992 -2.31674 19.3466 -11.6712 2.65751 18.5343 -0.0 -0.0 0.0 0.0 0.0 
